<?xml version="1.0" standalone="no"?>
<!DOCTYPE svg PUBLIC "-//W3C//DTD SVG 20010904//EN"
 "http://www.w3.org/TR/2001/REC-SVG-20010904/DTD/svg10.dtd">
<svg version="1.0" xmlns="http://www.w3.org/2000/svg"
 width="500.000000pt" height="250.000000pt" viewBox="0 0 500.000000 250.000000"
 preserveAspectRatio="xMidYMid meet">

<g transform="translate(0.000000,250.000000) scale(0.100000,-0.100000)"
fill="#000000" stroke="none">
<path d="M0 1250 l0 -1250 2500 0 2500 0 0 1250 0 1250 -2500 0 -2500 0 0
-1250z m4170 200 c0 -333 -3 -510 -10 -510 -6 0 -10 65 -11 173 0 134 -3 165
-11 142 -29 -80 -97 -128 -183 -128 -172 0 -265 201 -152 330 85 96 224 95
305 -3 38 -46 39 -54 8 -54 -14 0 -30 10 -40 25 -36 55 -136 74 -199 38 -45
-26 -80 -96 -74 -152 17 -160 244 -194 291 -44 7 21 4 22 -71 25 -72 3 -78 5
-81 26 -3 22 -2 22 102 22 l106 0 0 295 0 295 -1640 0 -1640 0 0 -262 0 -263
25 37 c81 119 266 112 331 -13 14 -28 13 -29 -6 -29 -12 0 -36 15 -53 34 -103
109 -272 24 -254 -129 8 -80 72 -135 154 -135 42 0 96 28 113 59 10 19 60 31
60 14 0 -12 -52 -74 -76 -90 -39 -25 -101 -33 -156 -18 -52 13 -89 41 -119 90
-19 30 -19 27 -19 -247 l0 -278 905 0 c597 0 905 -3 905 -10 0 -7 -312 -10
-915 -10 l-915 0 0 635 0 635 1657 3 c912 1 1659 3 1661 5 1 1 2 -227 2 -508z
m-2045 64 c19 -9 40 -30 49 -49 21 -43 20 -45 -9 -45 -14 0 -25 6 -25 13 0 47
-100 67 -132 27 -36 -44 -12 -78 73 -110 84 -30 109 -57 109 -114 0 -57 -29
-94 -85 -106 -81 -18 -165 30 -165 94 0 23 38 20 45 -4 18 -55 112 -67 148
-18 17 23 19 31 9 53 -6 14 -24 30 -39 37 -139 57 -154 69 -155 129 -3 85 91
134 177 93z m315 1 c54 -28 82 -95 40 -95 -12 0 -24 10 -30 24 -11 31 -61 49
-98 35 -31 -12 -42 -26 -42 -56 0 -31 22 -49 91 -74 35 -13 70 -34 84 -51 70
-83 -22 -195 -138 -169 -44 11 -63 25 -83 62 -20 39 -18 49 11 49 15 0 25 -6
25 -15 0 -26 42 -55 80 -55 48 0 80 24 80 60 0 35 -32 62 -100 85 -110 37
-135 142 -47 195 38 24 87 26 127 5z m1146 -12 c86 -44 125 -154 90 -248 -60
-155 -277 -174 -361 -31 -30 51 -34 139 -10 191 49 102 177 142 281 88z
m-2224 -155 l3 -173 78 -3 c68 -2 78 -5 75 -20 -3 -14 -18 -17 -101 -20 l-97
-3 0 196 c0 188 1 195 20 195 19 0 20 -8 22 -172z m454 -16 c41 -100 74 -187
74 -192 0 -6 -9 -10 -20 -10 -15 0 -27 15 -45 55 l-24 55 -84 0 -84 0 -20 -52
c-15 -39 -26 -54 -42 -56 -11 -2 -21 1 -21 7 0 6 29 82 65 170 36 88 69 171
75 186 7 19 16 25 31 23 17 -2 35 -38 95 -186z m831 103 l47 -86 21 35 c11 19
32 58 47 86 23 40 33 50 54 50 l25 0 -32 -57 c-91 -159 -89 -152 -89 -245 0
-87 0 -88 -25 -88 -25 0 -25 1 -25 88 0 75 -4 93 -26 132 -14 25 -41 73 -61
108 l-35 62 26 0 c21 0 32 -13 73 -85z m461 70 c77 -33 115 -91 115 -176 0
-75 -33 -135 -93 -169 -39 -21 -58 -25 -135 -25 l-90 0 -3 193 -2 192 85 0
c55 0 99 -6 123 -15z"/>
<path d="M3455 1480 c-66 -14 -109 -63 -120 -135 -8 -52 26 -120 75 -153 69
-46 177 -15 214 62 57 120 -43 253 -169 226z"/>
<path d="M1702 1413 c-5 -16 -19 -52 -31 -80 l-21 -53 69 0 69 0 -31 80 c-17
44 -34 80 -38 80 -4 0 -11 -12 -17 -27z"/>
<path d="M2950 1324 l0 -157 60 6 c102 11 153 52 165 132 15 100 -59 175 -173
175 l-52 0 0 -156z"/>
</g>
</svg>
