<?xml version="1.0" standalone="no"?>
<!DOCTYPE svg PUBLIC "-//W3C//DTD SVG 20010904//EN"
 "http://www.w3.org/TR/2001/REC-SVG-20010904/DTD/svg10.dtd">
<svg version="1.0" xmlns="http://www.w3.org/2000/svg"
 width="800.000000pt" height="100.000000pt" viewBox="0 0 800.000000 100.000000"
 preserveAspectRatio="xMidYMid meet">

<g transform="translate(0.000000,100.000000) scale(0.100000,-0.100000)"
fill="#000000" stroke="none">
<path d="M0 500 l0 -500 4000 0 4000 0 0 500 0 500 -4000 0 -4000 0 0 -500z
m7704 404 c14 -5 16 -46 16 -350 0 -223 -4 -344 -10 -344 -6 0 -10 120 -10
340 l0 340 -3720 0 -3720 0 0 -133 c0 -74 3 -249 7 -390 l6 -257 614 0 c402 0
613 -3 613 -10 0 -7 -214 -10 -623 -10 l-624 0 -6 152 c-4 83 -7 267 -7 410
l0 258 3724 0 c2048 0 3731 -3 3740 -6z m-5454 -311 c30 -32 32 -38 16 -41
-10 -2 -24 5 -32 16 -22 32 -67 46 -108 32 -85 -28 -96 -154 -17 -194 45 -24
76 -20 114 14 51 44 74 39 41 -9 -19 -27 -71 -51 -111 -51 -38 0 -89 33 -113
72 -57 94 25 218 135 204 30 -4 49 -14 75 -43z m1302 20 c19 -17 25 -53 8 -53
-6 0 -22 12 -34 27 -21 24 -27 26 -52 18 -57 -20 -37 -70 38 -95 87 -27 89
-124 3 -146 -48 -12 -115 23 -115 61 0 22 20 18 46 -10 38 -41 94 -29 94 21 0
26 -13 37 -59 53 -50 16 -71 39 -71 76 0 31 18 56 50 68 23 9 72 -1 92 -20z
m430 0 c19 -17 25 -53 8 -53 -6 0 -22 12 -34 27 -21 24 -27 26 -52 18 -57 -20
-37 -70 38 -95 87 -27 89 -124 3 -146 -48 -12 -115 23 -115 61 0 22 20 18 46
-10 38 -41 94 -29 94 21 0 26 -13 37 -59 53 -50 16 -71 39 -71 76 0 31 18 56
50 68 23 9 72 -1 92 -20z m1413 3 c84 -55 82 -176 -4 -233 -118 -79 -267 70
-188 188 44 66 130 86 192 45z m509 10 c18 -7 43 -26 55 -42 20 -26 21 -29 6
-32 -9 -2 -23 5 -31 16 -18 26 -74 45 -108 36 -41 -10 -76 -59 -76 -106 0 -32
7 -47 35 -75 32 -32 39 -35 78 -30 28 4 49 14 64 32 38 43 31 55 -32 55 -42 0
-55 3 -55 15 0 12 14 15 69 15 39 0 72 -4 75 -9 10 -15 -13 -74 -41 -103 -73
-76 -208 -27 -228 82 -12 70 62 160 133 160 12 0 37 -6 56 -14z m-3324 -116
l0 -120 50 0 c38 0 50 -4 50 -15 0 -12 -14 -15 -65 -15 l-65 0 0 135 c0 113 2
135 15 135 13 0 15 -20 15 -120z m527 -14 c29 -71 53 -130 53 -132 0 -2 -7 -4
-16 -4 -9 0 -22 17 -31 40 l-16 40 -59 0 -58 0 -16 -40 c-9 -22 -22 -40 -30
-40 -8 0 -14 3 -14 6 0 4 23 65 52 136 36 89 57 128 67 126 8 -2 38 -60 68
-132z m1209 77 l32 -57 32 57 c21 37 38 57 50 57 16 0 12 -12 -26 -77 -38 -67
-44 -86 -44 -135 0 -45 -3 -58 -15 -58 -12 0 -15 13 -15 61 0 54 -5 71 -40
131 -22 39 -40 72 -40 74 0 2 8 4 18 4 10 0 29 -22 48 -57z m543 43 c42 -22
65 -64 65 -117 0 -84 -49 -127 -156 -136 l-58 -6 0 137 0 136 60 0 c34 0 74
-7 89 -14z"/>
<path d="M5276 595 c-55 -30 -75 -83 -52 -140 15 -35 59 -65 96 -65 88 0 133
113 73 180 -34 37 -78 46 -117 25z"/>
<path d="M3013 525 l-21 -55 45 0 c41 0 44 2 37 22 -9 29 -34 88 -37 88 -1 0
-12 -25 -24 -55z"/>
<path d="M4740 494 l0 -106 43 7 c76 13 107 44 107 108 0 57 -43 97 -104 97
l-46 0 0 -106z"/>
</g>
</svg>
