<?xml version="1.0" standalone="no"?>
<!DOCTYPE svg PUBLIC "-//W3C//DTD SVG 20010904//EN"
 "http://www.w3.org/TR/2001/REC-SVG-20010904/DTD/svg10.dtd">
<svg version="1.0" xmlns="http://www.w3.org/2000/svg"
 width="500.000000pt" height="500.000000pt" viewBox="0 0 500.000000 500.000000"
 preserveAspectRatio="xMidYMid meet">

<g transform="translate(0.000000,500.000000) scale(0.100000,-0.100000)"
fill="#000000" stroke="none">
<path d="M0 2500 l0 -2500 2500 0 2500 0 0 2500 0 2500 -2500 0 -2500 0 0
-2500z m4170 185 c0 -330 -3 -505 -10 -505 -6 0 -10 65 -11 173 -1 126 -3 163
-10 139 -6 -18 -27 -50 -48 -71 -109 -109 -297 -52 -331 100 -17 75 -1 131 54
185 91 92 232 80 304 -26 l24 -35 -23 -3 c-16 -3 -29 4 -42 22 -27 37 -68 56
-123 56 -61 0 -111 -31 -135 -84 -25 -55 -24 -94 4 -146 61 -115 233 -104 271
17 7 21 4 22 -71 25 -72 3 -78 5 -81 26 -3 22 -2 22 102 22 l106 0 0 295 0
295 -1640 0 -1640 0 0 -267 0 -268 25 42 c29 47 108 93 162 93 66 0 139 -44
169 -102 14 -27 13 -28 -8 -28 -12 0 -33 14 -47 30 -33 39 -92 60 -139 49
-177 -40 -153 -309 27 -309 50 0 103 26 121 59 10 20 60 31 60 13 0 -16 -63
-83 -93 -99 -41 -21 -133 -21 -172 -1 -32 17 -75 60 -93 93 -9 15 -11 -50 -12
-257 l0 -278 905 0 c597 0 905 -3 905 -10 0 -7 -312 -10 -915 -10 l-915 0 0
635 0 635 1660 0 1660 0 0 -505z m-2019 48 c15 -15 30 -38 34 -50 5 -20 3 -23
-19 -23 -14 0 -26 5 -26 12 0 27 -34 48 -76 48 -36 0 -47 -5 -61 -26 -27 -42
-3 -72 86 -109 82 -33 103 -56 103 -111 0 -49 -29 -86 -81 -103 -74 -24 -161
19 -173 84 -4 21 -1 25 18 25 13 0 24 -5 24 -10 0 -25 50 -60 85 -60 48 0 71
14 79 46 11 41 -15 69 -88 95 -83 29 -109 55 -109 109 0 97 134 145 204 73z
m283 23 c60 -25 91 -96 41 -96 -15 0 -25 6 -25 14 0 26 -30 46 -70 46 -44 0
-70 -20 -70 -56 0 -31 23 -50 96 -80 108 -43 136 -114 71 -179 -60 -60 -159
-54 -204 14 -30 44 -29 61 2 61 16 0 25 -6 25 -15 0 -29 38 -55 82 -55 49 0
78 22 78 60 0 35 -21 53 -103 85 -49 20 -72 35 -82 56 -31 59 -11 119 49 145
40 17 69 17 110 0z m1155 -17 c113 -63 134 -216 43 -312 -70 -74 -174 -84
-263 -24 -104 70 -107 244 -5 322 19 15 47 30 63 35 42 14 119 4 162 -21z
m-2229 -154 l0 -175 80 0 c73 0 80 -2 80 -20 0 -19 -7 -20 -100 -20 l-100 0 0
195 c0 188 1 195 20 195 19 0 20 -7 20 -175z m404 113 c14 -35 50 -123 80
-195 53 -132 53 -133 30 -133 -20 0 -29 11 -49 55 l-24 55 -81 0 -81 0 -24
-55 c-20 -44 -29 -55 -49 -55 -23 0 -23 1 30 133 102 250 105 257 124 257 12
0 26 -19 44 -62z m875 -10 c22 -40 44 -79 48 -86 6 -10 23 12 56 72 41 73 52
86 73 86 l26 0 -35 -62 c-20 -35 -47 -83 -61 -108 -22 -39 -26 -57 -26 -132 0
-87 0 -88 -25 -88 -25 0 -25 1 -25 86 l0 87 -60 104 c-33 58 -60 107 -60 109
0 2 11 4 25 4 20 0 31 -13 64 -72z m469 57 c92 -39 133 -122 111 -226 -14 -62
-65 -119 -125 -137 -23 -6 -75 -12 -117 -12 l-76 0 -1 195 -1 195 86 0 c55 0
99 -6 123 -15z"/>
<path d="M3425 2711 c-35 -15 -75 -62 -85 -102 -28 -103 45 -199 152 -199 149
0 204 212 76 290 -34 21 -105 26 -143 11z"/>
<path d="M1702 2653 c-5 -16 -19 -52 -31 -80 l-21 -53 69 0 69 0 -31 80 c-18
44 -35 80 -39 80 -3 0 -10 -12 -16 -27z"/>
<path d="M2950 2566 l0 -156 38 0 c143 0 228 109 173 222 -26 56 -67 79 -147
86 l-64 5 0 -157z"/>
</g>
</svg>
