<svg width="104" height="161" viewBox="0 0 104 161" fill="none" xmlns="http://www.w3.org/2000/svg">
<path d="M3.90158 78.3494L51.3458 0V60.7766L44.3688 25.8269C34.3737 40.7551 12.2214 74.3351 9.65772 80.6454C7.08016 86.9899 3.90158 95.7134 10.5299 101.167C17.1581 106.62 17.3325 116.234 18.0302 122.405C18.5832 127.295 38.7517 128.458 45.5738 128.852L45.7642 128.863C40.0081 129.245 20.2978 130.47 16.1115 128.863C10.8787 126.854 15.9371 113.508 5.12257 103.75C-3.52902 95.943 0.70375 83.5634 3.90158 78.3494Z" fill="#EEEEEE"/>
<path d="M99.6331 78.2949L53.0864 7.83203L54.0872 22.2732C70.9494 38.4344 92.9585 76.2838 95.4175 81.599C98.3152 87.8622 99.6331 95.6772 92.9585 101.136C86.2838 106.595 86.1082 116.22 85.4056 122.397C84.8499 127.283 64.4444 128.452 57.533 128.848L57.302 128.862C63.0984 129.245 83.1222 130.471 87.3377 128.862C92.6072 126.85 87.5134 113.49 98.4036 103.722C107.116 95.9071 102.853 83.5144 99.6331 78.2949Z" fill="#EEEEEE"/>
<mask id="mask0_75_552" style="mask-type:alpha" maskUnits="userSpaceOnUse" x="9" y="26" width="86" height="100">
<path d="M9.98255 86.5477C11.0118 78.8969 31.9303 48.4703 42.6508 33.3066L52.4358 72.7195L55.7169 26.978C63.1784 33.4398 91.5442 78.0181 94.2458 86.5477C96.9474 95.0772 90.0005 99.6005 87.5562 101.927C85.1119 104.253 83.1822 113.041 83.0536 116.143C82.9249 119.244 82.6676 122.087 79.7088 123.509C77.3417 124.646 69.7172 125.189 66.2009 125.318V117.177C74.2437 112.823 74.8365 105.459 75.394 100.505L74.8226 78.0181C66.2009 79.1196 64.2342 89.3909 63.8911 95.0772V102.961C59.2599 99.8589 53.1219 103.047 51.6639 105.028L50.7634 103.865C52.8217 102.314 57.1957 96.6281 52.4358 91.0709C48.6278 86.6252 42.742 88.9647 40.5979 90.3862C39.3629 80.6677 34.1855 77.8889 29.3827 78.0181V93.5264C29.3827 101.927 34.2966 106.493 38.7992 106.838V125.318C36.0119 125.189 29.5624 124.646 26.0633 123.509C21.6893 122.087 21.8179 120.924 21.432 116.143C21.046 111.361 18.7305 106.45 14.6138 101.927C10.4971 97.4035 8.69605 96.1111 9.98255 86.5477Z" fill="url(#paint0_linear_75_552)"/>
</mask>
<g mask="url(#mask0_75_552)">
<path d="M3.48467 37.2392C6.20236 49.9221 10.0071 86.3383 3.48467 130.54C14.6354 125.075 17.4752 118.886 17.4752 100.283C16.0258 87.7561 17.7725 75.8435 34.8153 74.3774C51.8581 72.9113 52.435 57.7021 51.5267 49.9064C48.3473 60.3585 41.9129 58.3224 33.1459 55.8789C35.2731 50.1444 36.4284 48.6236 38.6149 49.1575C55.158 53.1964 52.7417 32.7642 53.0863 21.7563C48.9075 43.7602 14.9572 27.784 6.39487 28.0087C-0.454994 28.1884 1.81528 33.2625 3.48467 37.2392Z" fill="#F69722"/>
<path d="M26.492 80.3528C30.6859 76.6292 44.6354 75.8271 50.6037 73.1025C47.6195 91.4933 37.1749 86.8492 34.3565 89.2641C31.5381 91.6791 35.3512 101.153 33.5276 110.07C31.7039 118.987 50.6873 112.336 62.5404 113.971C73.3167 115.457 77.1298 104.683 72.8193 101.525C68.5088 98.3667 43.1432 105.797 43.8063 101.525C44.3369 98.1066 43.0327 94.2798 42.3142 92.7937C47.2879 93.7225 76.6672 89.4499 81.6409 92.7937C86.6145 96.1375 89.2671 124.002 70.6988 124.002C52.1305 124.002 21.7566 126.951 21.7566 117.686C21.7566 106.303 22.5934 83.8143 26.492 80.3528Z" fill="#4A8068"/>
<path d="M56.7754 69.1705C59.6827 54.4394 57.1058 31.5194 56.7754 23.0491C56.7754 20.9622 58.8405 20.558 60.7402 21.1104C64.5349 22.2139 74.4172 41.7828 77.8528 51.6689C77.686 49.3693 78.251 45.1047 80.848 37.9641C84.8125 27.0631 91.5301 26.3019 94.3934 27.284C95.3845 59.8151 96.2224 104.083 98.0725 111.154C99.9226 118.225 91.7953 126.622 85.8486 125.149C91.6632 110.418 85.2349 85.6469 82.8121 63.6731L78.5354 72.5821L69.9456 58.9558L69.9269 59.339C69.1649 74.9976 68.5524 87.5843 65.035 87.5843C61.5661 87.5843 56.5003 87.0933 53.0864 87.5843C53.3067 86.4795 53.8681 83.9015 56.7754 69.1705Z" fill="#E62C20"/>
</g>
<path d="M36.5508 101.82C35.9794 101.821 35.4136 101.58 34.8857 101.112C34.3578 100.644 33.8781 99.9585 33.474 99.0936C33.0699 98.2288 32.7494 97.202 32.5307 96.0719C32.312 94.9417 32.1995 93.7304 32.1995 92.5072L32.1995 82.6744C33.3535 82.6744 34.4603 83.6559 35.2763 85.4031C36.0924 87.1502 36.5508 89.5198 36.5508 91.9906V101.82Z" fill="#EEEEEE"/>
<path d="M72.232 82.6748C71.6606 82.6742 71.0948 83.046 70.5669 83.7691C70.039 84.4921 69.5593 85.5522 69.1552 86.8888C68.7511 88.2253 68.4306 89.8122 68.2119 91.5588C67.9932 93.3053 67.8806 95.1773 67.8806 97.0679V112.264C69.0347 112.264 70.1414 110.747 70.9575 108.047C71.7735 105.347 72.232 101.685 72.232 97.8662V82.6748Z" fill="#EEEEEE"/>
<path d="M62.6592 116.616V149.906C62.6592 151.363 62.4341 152.805 61.9967 154.151C61.5594 155.497 60.9183 156.72 60.1102 157.751C59.3021 158.781 58.3427 159.598 57.2869 160.155C56.231 160.713 55.0993 161 53.9565 161V127.71C53.9565 124.768 54.8734 121.946 56.5054 119.866C58.1375 117.785 60.3511 116.616 62.6592 116.616Z" fill="#EEEEEE"/>
<path d="M41.7727 105.303V147.078C41.7727 148.906 41.9978 150.717 42.4352 152.406C42.8725 154.095 43.5135 155.629 44.3217 156.922C45.1298 158.215 46.0892 159.241 47.145 159.94C48.2009 160.64 49.3325 161 50.4754 161V119.225C50.4754 115.532 49.5585 111.991 47.9264 109.38C46.2944 106.77 44.0808 105.303 41.7727 105.303Z" fill="#EEEEEE"/>
<path d="M58.7426 113.135C60.9055 113.135 62.6588 111.382 62.6588 109.219C62.6588 107.056 60.9055 105.303 58.7426 105.303C56.5798 105.303 54.8264 107.056 54.8264 109.219C54.8264 111.382 56.5798 113.135 58.7426 113.135Z" fill="#EEEEEE"/>
<path d="M46.124 100.951C48.5272 100.951 50.4754 99.0026 50.4754 96.5994C50.4754 94.1962 48.5272 92.248 46.124 92.248C43.7209 92.248 41.7727 94.1962 41.7727 96.5994C41.7727 99.0026 43.7209 100.951 46.124 100.951Z" fill="#EEEEEE"/>
<defs>
<linearGradient id="paint0_linear_75_552" x1="52.2164" y1="26.978" x2="52.2164" y2="125.318" gradientUnits="userSpaceOnUse">
<stop stop-color="#FCAA25"/>
<stop offset="0.291667" stop-color="#F5BD02"/>
<stop offset="1" stop-color="#F36334"/>
</linearGradient>
</defs>
</svg>
