<svg width="416" height="50" viewBox="0 0 416 50" fill="none" xmlns="http://www.w3.org/2000/svg">
<path d="M1.21167 24.3321L15.9459 0V18.8747L13.7791 8.02077C10.6751 12.6569 3.79547 23.0854 2.99929 25.0452C2.19881 27.0155 1.21167 29.7246 3.27014 31.4182C5.32861 33.1117 5.38277 36.0977 5.59945 38.014C5.77117 39.5327 12.0347 39.8939 14.1533 40.0161L14.2125 40.0195C12.4249 40.1383 6.30366 40.5187 5.00358 40.0195C3.37848 39.3956 4.9494 35.2509 1.59086 32.2204C-1.09597 29.796 0.218556 25.9514 1.21167 24.3321Z" fill="#EEEEEE"/>
<path d="M30.942 24.315L16.4865 2.43213L16.7973 6.91697C22.034 11.936 28.8691 23.6904 29.6328 25.3411C30.5327 27.2862 30.942 29.7132 28.8691 31.4086C26.7962 33.1039 26.7417 36.093 26.5235 38.0113C26.3509 39.5288 20.0138 39.8919 17.8674 40.0148L17.7956 40.0189C19.5958 40.1379 25.8143 40.5186 27.1235 40.0189C28.76 39.3944 27.1781 35.2453 30.5601 32.2116C33.2657 29.7846 31.942 25.936 30.942 24.315Z" fill="#EEEEEE"/>
<mask id="mask0_75_1307" style="mask-type:alpha" maskUnits="userSpaceOnUse" x="2" y="8" width="28" height="31">
<path d="M3.10001 26.8783C3.41964 24.5023 9.91609 15.053 13.2454 10.3438L16.2842 22.5838L17.3032 8.37842C19.6205 10.3852 28.4297 24.2294 29.2687 26.8783C30.1077 29.5272 27.9503 30.932 27.1912 31.6544C26.4321 32.3768 25.8328 35.1061 25.7929 36.0693C25.7529 37.0325 25.673 37.9155 24.7541 38.357C24.019 38.7102 21.6512 38.8788 20.5591 38.9189V36.3904C23.0569 35.0384 23.241 32.7514 23.4141 31.2129L23.2367 24.2294C20.5591 24.5715 19.9483 27.7613 19.8418 29.5272V31.9755C18.4035 31.0122 16.4973 32.0023 16.0445 32.6177L15.7649 32.2564C16.4041 31.7748 17.7625 30.0089 16.2842 28.283C15.1017 26.9024 13.2738 27.6289 12.6079 28.0704C12.2243 25.0522 10.6164 24.1892 9.12489 24.2294V29.0456C9.12489 31.6544 10.651 33.0725 12.0493 33.1796V38.9189C11.1837 38.8788 9.18072 38.7102 8.09402 38.357C6.73565 37.9155 6.7756 37.5543 6.65574 36.0693C6.53588 34.5843 5.81676 33.0591 4.53828 31.6544C3.25981 30.2497 2.70048 29.8483 3.10001 26.8783Z" fill="url(#paint0_linear_75_1307)"/>
</mask>
<g mask="url(#mask0_75_1307)">
<path d="M1.08196 11.5647C1.92596 15.5035 3.10756 26.8128 1.08196 40.5401C4.54492 38.8428 5.42685 36.9209 5.42685 31.1435C4.97671 27.2532 5.51916 23.5536 10.812 23.0983C16.1048 22.643 16.2839 17.9196 16.0018 15.4986C15.0145 18.7446 13.0162 18.1123 10.2935 17.3534C10.9541 15.5725 11.3129 15.1002 11.992 15.266C17.1296 16.5204 16.3792 10.1749 16.4862 6.75635C15.1884 13.5898 4.64486 8.62829 1.98575 8.69806C-0.141541 8.75387 0.563515 10.3297 1.08196 11.5647Z" fill="#F69722"/>
<path d="M8.22722 24.9543C9.52966 23.7979 13.8618 23.5488 15.7153 22.7026C14.7886 28.4141 11.5449 26.9718 10.6696 27.7218C9.79433 28.4718 10.9785 31.414 10.4122 34.1832C9.84582 36.9524 15.7413 34.887 19.4224 35.3947C22.769 35.8562 23.9533 32.5101 22.6146 31.5294C21.2759 30.5486 13.3984 32.8563 13.6043 31.5294C13.7691 30.4679 13.3641 29.2794 13.141 28.8179C14.6856 29.1064 23.8096 27.7795 25.3542 28.8179C26.8988 29.8563 27.7226 38.51 21.956 38.51C16.1895 38.51 6.75658 39.4257 6.75659 36.5485C6.75661 33.0135 7.01646 26.0293 8.22722 24.9543Z" fill="#4A8068"/>
<path d="M17.6317 21.4814C18.5346 16.9066 17.7343 9.78857 17.6317 7.15802C17.6317 6.50991 18.2731 6.38438 18.863 6.55594C20.0415 6.89864 23.1106 12.976 24.1775 16.0462C24.1257 15.332 24.3012 14.0076 25.1077 11.79C26.3389 8.4046 28.4251 8.16823 29.3143 8.47322C29.6221 18.576 29.8823 32.3239 30.4569 34.5198C31.0315 36.7158 28.5075 39.3234 26.6607 38.8659C28.4664 34.2911 26.4701 26.5983 25.7177 19.7742L24.3895 22.5409L21.7218 18.3092L21.716 18.4282C21.4794 23.2911 21.2892 27.2 20.1968 27.2C19.1195 27.2 17.5463 27.0475 16.4861 27.2C16.5545 26.8569 16.7288 26.0563 17.6317 21.4814Z" fill="#E62C20"/>
</g>
<path d="M11.3511 31.6211C11.1737 31.6212 10.9979 31.5465 10.834 31.4012C10.67 31.2559 10.5211 31.0429 10.3956 30.7743C10.2701 30.5057 10.1705 30.1868 10.1026 29.8359C10.0347 29.4849 9.99976 29.1087 9.99976 28.7288L9.99976 25.6752C10.3582 25.6752 10.7019 25.98 10.9553 26.5226C11.2087 27.0652 11.3511 27.8011 11.3511 28.5684V31.6211Z" fill="#EEEEEE"/>
<path d="M22.4322 25.6753C22.2547 25.6751 22.079 25.7906 21.9151 26.0151C21.7511 26.2397 21.6021 26.5689 21.4766 26.984C21.3511 27.3991 21.2516 27.8919 21.1837 28.4343C21.1158 28.9767 21.0808 29.5581 21.0808 30.1452L21.0808 34.8645C21.4392 34.8645 21.7829 34.3934 22.0364 33.5548C22.2898 32.7163 22.4322 31.579 22.4322 30.3931V25.6753Z" fill="#EEEEEE"/>
<path d="M19.4592 36.2163V46.5547C19.4592 47.0071 19.3893 47.4552 19.2535 47.8732C19.1177 48.2912 18.9186 48.671 18.6676 48.9909C18.4167 49.3109 18.1187 49.5647 17.7908 49.7378C17.4629 49.9109 17.1115 50.0001 16.7565 50.0001V39.6617C16.7565 38.7479 17.0413 37.8716 17.5481 37.2254C18.055 36.5793 18.7424 36.2163 19.4592 36.2163Z" fill="#EEEEEE"/>
<path d="M12.9729 32.7026V45.6763C12.9729 46.2441 13.0428 46.8063 13.1786 47.3309C13.3145 47.8554 13.5135 48.3321 13.7645 48.7335C14.0155 49.135 14.3134 49.4535 14.6413 49.6708C14.9692 49.8881 15.3207 49.9999 15.6756 49.9999V37.0262C15.6756 35.8796 15.3909 34.7798 14.884 33.969C14.3771 33.1582 13.6897 32.7026 12.9729 32.7026Z" fill="#EEEEEE"/>
<path d="M18.2431 35.1351C18.9148 35.1351 19.4593 34.5905 19.4593 33.9189C19.4593 33.2472 18.9148 32.7026 18.2431 32.7026C17.5714 32.7026 17.0269 33.2472 17.0269 33.9189C17.0269 34.5905 17.5714 35.1351 18.2431 35.1351Z" fill="#EEEEEE"/>
<path d="M14.3242 31.3511C15.0706 31.3511 15.6756 30.7461 15.6756 29.9998C15.6756 29.2535 15.0706 28.6484 14.3242 28.6484C13.5779 28.6484 12.9729 29.2535 12.9729 29.9998C12.9729 30.7461 13.5779 31.3511 14.3242 31.3511Z" fill="#EEEEEE"/>
<path d="M58.7167 23.4437H66.7266V28.0728H58.7167V23.4437ZM59.1328 33.8982H52.9954V15.6939H67.7928V20.323H59.1328V33.8982Z" fill="#EEEEEE"/>
<path d="M75.349 22.4555H83.4629V26.8765H75.349V22.4555ZM75.7651 29.2691H84.8672V33.8982H69.7317V15.6939H84.5292V20.323H75.7651V29.2691Z" fill="#EEEEEE"/>
<path d="M94.0175 34.3143C92.4918 34.3143 91.0181 34.1409 89.5965 33.7942C88.1748 33.4474 87.0045 32.9966 86.0857 32.4418L88.0621 27.9688C88.929 28.4716 89.8912 28.879 90.9488 29.1911C92.0237 29.4858 93.0639 29.6332 94.0695 29.6332C94.659 29.6332 95.1184 29.5985 95.4478 29.5292C95.7946 29.4425 96.046 29.3298 96.202 29.1911C96.3581 29.035 96.4361 28.853 96.4361 28.645C96.4361 28.3155 96.254 28.0555 95.8899 27.8648C95.5259 27.6741 95.0404 27.518 94.4336 27.3967C93.8441 27.258 93.194 27.1193 92.4831 26.9806C91.7723 26.8245 91.0528 26.6251 90.3246 26.3824C89.6138 26.1397 88.955 25.819 88.3482 25.4202C87.7587 25.0214 87.2819 24.5013 86.9178 23.8598C86.5538 23.201 86.3717 22.3862 86.3717 21.4153C86.3717 20.2883 86.6838 19.2654 87.3079 18.3465C87.9494 17.4103 88.8943 16.6648 90.1426 16.11C91.4082 15.5552 92.9773 15.2778 94.8497 15.2778C96.0807 15.2778 97.2943 15.4079 98.4905 15.6679C99.6868 15.928 100.762 16.3267 101.715 16.8642L99.8689 21.3112C98.9673 20.8605 98.0918 20.5224 97.2423 20.297C96.4101 20.0716 95.5952 19.9589 94.7977 19.9589C94.2082 19.9589 93.7401 20.0109 93.3934 20.115C93.0466 20.219 92.7952 20.3577 92.6392 20.5311C92.5005 20.7044 92.4311 20.8951 92.4311 21.1032C92.4311 21.4153 92.6132 21.6667 92.9773 21.8574C93.3413 22.0307 93.8181 22.1781 94.4076 22.2995C95.0144 22.4208 95.6732 22.5509 96.3841 22.6896C97.1122 22.8283 97.8317 23.019 98.5426 23.2617C99.2534 23.5044 99.9035 23.8252 100.493 24.2239C101.1 24.6227 101.585 25.1428 101.949 25.7843C102.313 26.4258 102.495 27.2233 102.495 28.1768C102.495 29.2864 102.175 30.3093 101.533 31.2456C100.909 32.1644 99.9729 32.91 98.7246 33.4821C97.4763 34.0369 95.9073 34.3143 94.0175 34.3143Z" fill="#EEEEEE"/>
<path d="M108.021 33.8982V20.453H102.69V15.6939H119.489V20.453H114.158V33.8982H108.021Z" fill="#EEEEEE"/>
<path d="M121.084 33.8982V15.6939H127.221V33.8982H121.084Z" fill="#EEEEEE"/>
<path d="M135.897 33.8982L128.199 15.6939H134.805L141.072 31.0635H137.145L143.595 15.6939H149.628L141.93 33.8982H135.897Z" fill="#EEEEEE"/>
<path d="M147.602 33.8982L155.56 15.6939H161.593L169.551 33.8982H163.206L157.328 18.6066H159.721L153.843 33.8982H147.602ZM152.335 30.7254L153.895 26.3044H162.269L163.83 30.7254H152.335Z" fill="#EEEEEE"/>
<path d="M170.531 33.8982V15.6939H176.668V29.1391H184.886V33.8982H170.531Z" fill="#EEEEEE"/>
<path d="M149.738 15.668H128.153L135.825 34.0023H141.936L149.738 15.668Z" fill="#E62C20"/>
<path d="M147.527 34.0024H169.633L161.571 15.5381H155.459L147.527 34.0024Z" fill="#F69722"/>
<path d="M208.754 34.3143C207.28 34.3143 205.919 34.0889 204.671 33.6381C203.44 33.17 202.365 32.5112 201.446 31.6617C200.545 30.8121 199.842 29.8066 199.34 28.645C198.837 27.4834 198.585 26.2004 198.585 24.7961C198.585 23.3917 198.837 22.1088 199.34 20.9472C199.842 19.7856 200.553 18.78 201.472 17.9305C202.391 17.0809 203.475 16.4308 204.723 15.98C205.989 15.5119 207.376 15.2778 208.884 15.2778C210.687 15.2778 212.291 15.5812 213.695 16.188C215.117 16.7949 216.287 17.6617 217.206 18.7887L213.279 22.2475C212.707 21.5886 212.083 21.0945 211.406 20.7651C210.748 20.4184 210.011 20.245 209.196 20.245C208.52 20.245 207.904 20.349 207.349 20.5571C206.812 20.7651 206.353 21.0685 205.971 21.4673C205.59 21.866 205.295 22.3428 205.087 22.8976C204.879 23.4524 204.775 24.0852 204.775 24.7961C204.775 25.4722 204.879 26.0964 205.087 26.6685C205.295 27.2233 205.59 27.7001 205.971 28.0988C206.353 28.4976 206.803 28.8097 207.323 29.035C207.861 29.2431 208.459 29.3471 209.118 29.3471C209.811 29.3471 210.488 29.2344 211.146 29.009C211.805 28.7663 212.507 28.3589 213.253 27.7868L216.686 31.9997C215.576 32.7452 214.31 33.3174 212.889 33.7161C211.467 34.1149 210.089 34.3143 208.754 34.3143ZM211.354 31.2196V24.3019H216.686V31.9997L211.354 31.2196Z" fill="#EEEEEE"/>
<path d="M217.324 33.8982L225.282 15.6939H231.316L239.273 33.8982H232.928L227.051 18.6066H229.443L223.566 33.8982H217.324ZM222.057 30.7254L223.618 26.3044H231.992L233.552 30.7254H222.057Z" fill="#EEEEEE"/>
<path d="M240.253 33.8982V15.6939H249.225C251.253 15.6939 253.039 16.0667 254.582 16.8122C256.125 17.5404 257.33 18.5806 258.197 19.9329C259.064 21.2852 259.497 22.8976 259.497 24.7701C259.497 26.6598 259.064 28.2895 258.197 29.6592C257.33 31.0115 256.125 32.0604 254.582 32.8059C253.039 33.5341 251.253 33.8982 249.225 33.8982H240.253ZM246.39 29.1131H248.965C249.832 29.1131 250.586 28.9484 251.227 28.6189C251.886 28.2895 252.398 27.8041 252.762 27.1626C253.126 26.5038 253.308 25.7063 253.308 24.7701C253.308 23.8512 253.126 23.071 252.762 22.4295C252.398 21.788 251.886 21.3026 251.227 20.9732C250.586 20.6438 249.832 20.479 248.965 20.479H246.39V29.1131Z" fill="#EEEEEE"/>
<path d="M265.96 34.3143C264.539 34.3143 263.256 34.0889 262.112 33.6381C260.967 33.17 260.014 32.4939 259.251 31.6096L262.554 27.7087C263.039 28.2982 263.516 28.749 263.984 29.0611C264.452 29.3558 264.938 29.5032 265.44 29.5032C266.758 29.5032 267.417 28.749 267.417 27.2406V20.323H261.227V15.6939H273.476V26.8765C273.476 29.3731 272.835 31.2369 271.552 32.4678C270.269 33.6988 268.405 34.3143 265.96 34.3143Z" fill="#EEEEEE"/>
<path d="M273.933 33.8982L281.891 15.6939H287.924L295.882 33.8982H289.537L283.659 18.6066H286.052L280.175 33.8982H273.933ZM278.666 30.7254L280.227 26.3044H288.601L290.161 30.7254H278.666Z" fill="#EEEEEE"/>
<path d="M308.669 15.6939H314.806V33.8982H308.669V15.6939ZM302.999 33.8982H296.862V15.6939H302.999V33.8982ZM309.085 27.1886H302.583V22.1434H309.085V27.1886Z" fill="#EEEEEE"/>
<path d="M242.952 30.9073V17.9043H254.655V30.9073H242.952Z" fill="#EEEEEE"/>
<path d="M273.769 33.8979H295.874L287.812 15.4336H281.701L273.769 33.8979Z" fill="#9C4A9A"/>
<path d="M217.336 33.8979H239.441L231.379 15.4336H225.268L217.336 33.8979Z" fill="#4A8068"/>
<path d="M328.527 34.0993V15.895H333.572L340.853 27.7798H338.201L345.275 15.895H350.32L350.372 34.0993H344.78L344.728 24.321H345.613L340.775 32.4609H338.071L333.026 24.321H334.118V34.0993H328.527Z" fill="#EEEEEE"/>
<path d="M351.363 34.0993L359.32 15.895H365.354L373.312 34.0993H366.966L361.089 18.8077H363.481L357.604 34.0993H351.363ZM356.096 30.9265L357.656 26.5055H366.03L367.59 30.9265H356.096Z" fill="#EEEEEE"/>
<path d="M374.291 34.0993V15.895H383.263C385.292 15.895 387.078 16.2678 388.621 17.0133C390.164 17.7415 391.369 18.7817 392.235 20.134C393.102 21.4863 393.536 23.0987 393.536 24.9711C393.536 26.8609 393.102 28.4906 392.235 29.8603C391.369 31.2126 390.164 32.2615 388.621 33.007C387.078 33.7352 385.292 34.0993 383.263 34.0993H374.291ZM380.429 29.3142H383.003C383.87 29.3142 384.624 29.1495 385.266 28.82C385.925 28.4906 386.436 28.0052 386.8 27.3637C387.164 26.7049 387.346 25.9074 387.346 24.9711C387.346 24.0523 387.164 23.2721 386.8 22.6306C386.436 21.9891 385.925 21.5037 385.266 21.1743C384.624 20.8448 383.87 20.6801 383.003 20.6801H380.429V29.3142Z" fill="#EEEEEE"/>
<path d="M393.546 34.0993L401.504 15.895H407.538L415.495 34.0993H409.15L403.273 18.8077H405.665L399.788 34.0993H393.546ZM398.279 30.9265L399.84 26.5055H408.214L409.774 30.9265H398.279Z" fill="#EEEEEE"/>
<path d="M393.36 34.0991H415.465L407.403 15.6348H401.292L393.36 34.0991Z" fill="#F69722"/>
<path d="M333.546 15.895H328.475V34.0993H350.45V15.895H345.249L339.537 25.4478L333.546 15.895Z" fill="#E62C20"/>
<defs>
<linearGradient id="paint0_linear_75_1307" x1="16.2161" y1="8.37842" x2="16.2161" y2="38.9189" gradientUnits="userSpaceOnUse">
<stop stop-color="#FCAA25"/>
<stop offset="0.291667" stop-color="#F5BD02"/>
<stop offset="1" stop-color="#F36334"/>
</linearGradient>
</defs>
</svg>
